<svg xmlns="http://www.w3.org/2000/svg" xmlns:xlink="http://www.w3.org/1999/xlink" viewBox="0 0 100 125" version="1.1" x="0px" y="0px"><title>Bell v1.6</title><desc>Created with Sketch.</desc><g stroke="none" stroke-width="1" fill="none" fill-rule="evenodd"><g fill="#000000"><path d="M69.9979131,57.5 L68.990778,57.5 C71.7658215,57.5 74,59.7378306 74,62.4983345 L74,63.5018986 C74,64.6132936 73.1039475,65.5 71.9986107,65.5 L28.0013893,65.5 C26.8949384,65.5 26,64.6054196 26,63.5018986 L26,62.4983345 C26,59.7390838 28.2427051,57.5 31.009222,57.5 L30.0020869,57.5 C31.1017394,57.5 32,56.603789 32,55.4982567 L32,43.4992494 C32,33.554291 40.0588745,25.5 50,25.5 C59.9433113,25.5 68,33.5585385 68,43.4992494 L68,55.4982567 C68,56.6107383 68.8944962,57.5 69.9979131,57.5 Z M43,67.5 L57,67.5 C57,71.3659932 53.8659932,74.5 50,74.5 C46.1340068,74.5 43,71.3659932 43,67.5 Z"/></g></g><text x="0" y="115" fill="#000000" font-size="5px" font-weight="bold" font-family="'Helvetica Neue', Helvetica, Arial-Unicode, Arial, Sans-serif">Created by Landan Lloyd</text><text x="0" y="120" fill="#000000" font-size="5px" font-weight="bold" font-family="'Helvetica Neue', Helvetica, Arial-Unicode, Arial, Sans-serif">from the Noun Project</text></svg>