<svg xmlns="http://www.w3.org/2000/svg" xmlns:xlink="http://www.w3.org/1999/xlink" viewBox="0 0 100 125" version="1.1" x="0px" y="0px"><title>Search v1.5</title><desc>Created with Sketch.</desc><g stroke="none" stroke-width="1" fill="none" fill-rule="evenodd"><g fill-rule="nonzero" fill="#000000"><path d="M59.2355026,54.9928619 L69.1213203,64.8786797 L64.8786797,69.1213203 L54.9928619,59.2355026 C52.4300358,60.9801974 49.3341117,62 46,62 C37.163444,62 30,54.836556 30,46 C30,37.163444 37.163444,30 46,30 C54.836556,30 62,37.163444 62,46 C62,49.3341117 60.9801974,52.4300358 59.2355026,54.9928619 L59.2355026,54.9928619 Z M46,56 C51.5228475,56 56,51.5228475 56,46 C56,40.4771525 51.5228475,36 46,36 C40.4771525,36 36,40.4771525 36,46 C36,51.5228475 40.4771525,56 46,56 Z"/></g></g><text x="0" y="115" fill="#000000" font-size="5px" font-weight="bold" font-family="'Helvetica Neue', Helvetica, Arial-Unicode, Arial, Sans-serif">Created by Landan Lloyd</text><text x="0" y="120" fill="#000000" font-size="5px" font-weight="bold" font-family="'Helvetica Neue', Helvetica, Arial-Unicode, Arial, Sans-serif">from the Noun Project</text></svg>