<svg xmlns="http://www.w3.org/2000/svg" xmlns:xlink="http://www.w3.org/1999/xlink" version="1.1" x="0px" y="0px" viewBox="0 0 100 125" enable-background="new 0 0 100 100" xml:space="preserve"><path d="M89.4,18.1H10.6c-3.1,0-5.6,2.5-5.6,5.6v52.5c0,3.1,2.5,5.6,5.6,5.6h78.8c3.1,0,5.6-2.5,5.6-5.6V23.8  C95,20.6,92.5,18.1,89.4,18.1z M90.9,25.4L59.5,55.9c-2.6,2.6-6.1,3.8-9.5,3.8c-3.4,0-6.9-1.3-9.5-3.8L9.1,25.4  c-0.9-0.9-0.9-2.3,0-3.2c0.9-0.9,2.3-0.9,3.2,0l31.4,30.5c3.5,3.4,9.3,3.4,12.8,0l31.4-30.5c0.9-0.9,2.3-0.8,3.2,0  C91.9,23.1,91.8,24.5,90.9,25.4z"/><text x="0" y="115" fill="#000000" font-size="5px" font-weight="bold" font-family="'Helvetica Neue', Helvetica, Arial-Unicode, Arial, Sans-serif">Created by fcFrankChung</text><text x="0" y="120" fill="#000000" font-size="5px" font-weight="bold" font-family="'Helvetica Neue', Helvetica, Arial-Unicode, Arial, Sans-serif">from the Noun Project</text></svg>