<svg xmlns="http://www.w3.org/2000/svg" xmlns:xlink="http://www.w3.org/1999/xlink" version="1.1" x="0px" y="0px" viewBox="0 0 100 125" enable-background="new 0 0 100 100" xml:space="preserve"><g><path d="M91.754,40.842L51.775,5.67c-1.015-0.894-2.536-0.894-3.551,0L8.246,40.842c-0.58,0.51-0.913,1.245-0.913,2.018v49.451   c0,1.485,1.203,2.688,2.688,2.688H34.72c1.485,0,2.688-1.203,2.688-2.688V77.398c0-6.937,5.648-12.58,12.591-12.58   s12.591,5.644,12.591,12.58v14.914c0,1.485,1.203,2.688,2.688,2.688h24.699c1.485,0,2.688-1.203,2.688-2.688V42.86   C92.667,42.088,92.334,41.353,91.754,40.842z M87.29,89.624H67.967V77.398c0-9.901-8.06-17.957-17.968-17.957   s-17.968,8.056-17.968,17.957v12.226H12.71V44.076L50,11.269L87.29,44.076V89.624z"/></g><text x="0" y="115" fill="#000000" font-size="5px" font-weight="bold" font-family="'Helvetica Neue', Helvetica, Arial-Unicode, Arial, Sans-serif">Created by Maxim Kulikov</text><text x="0" y="120" fill="#000000" font-size="5px" font-weight="bold" font-family="'Helvetica Neue', Helvetica, Arial-Unicode, Arial, Sans-serif">from the Noun Project</text></svg>